<svg width="598" height="598" viewBox="0 0 598 598" fill="none" 
  xmlns="http://www.w3.org/2000/svg">
  <mask id="mask0" mask-type="alpha" maskUnits="userSpaceOnUse" x="0" y="0" width="598" height="598">
    <rect width="598" height="598" fill="white"/>
  </mask>
  <g mask="url(#mask0)">
    <path d="M549.663 394.093L549.631 203.911L549.627 176.964C549.623 163.027 542.188 150.151 530.116 143.184L318.792 21.2234C306.723 14.2567 291.852 14.2589 279.783 21.23L68.4995 143.26C56.431 150.23 48.9989 163.109 49 177.046L49.0044 203.91L49.0365 394.092L49.0409 421.039C49.0431 434.975 56.4796 447.852 68.5503 454.818L279.874 576.78C291.946 583.747 306.814 583.742 318.883 576.773L530.167 454.741C542.235 447.771 549.668 434.892 549.666 420.954L549.663 394.093Z" fill="url(#paint0_linear)"/>
    <mask id="mask1" mask-type="alpha" maskUnits="userSpaceOnUse" x="49" y="16" width="501" height="567">
      <path d="M549.663 394.093L549.631 203.911L549.627 176.964C549.623 163.027 542.188 150.151 530.116 143.184L318.792 21.2234C306.723 14.2567 291.852 14.2589 279.783 21.23L68.4995 143.26C56.431 150.23 48.9989 163.109 49 177.046L49.0044 203.91L49.0365 394.092L49.0409 421.039C49.0431 434.975 56.4796 447.852 68.5503 454.818L279.874 576.78C291.946 583.747 306.814 583.742 318.883 576.773L530.167 454.741C542.235 447.771 549.668 434.892 549.666 420.954L549.663 394.093Z" fill="#324A5E"/>
    </mask>
    <g mask="url(#mask1)">
      <path d="M63.0864 159.024L302.957 19.3613L542.826 159.024V438.124L302.957 577.787L63.0864 438.124V159.024Z" fill="#CC0000"/>
      <path d="M309.682 298.46L532.738 170.008L541.705 428.931L309.682 569.042V298.46V298.46Z" fill="white"/>
      <path d="M536.102 162.162L535.428 436.555L302.733 571.509L301.612 301.823L536.102 162.162V162.162ZM340.395 324.239L341.065 504.479L418.407 459.418L418.183 323.57L457.191 300.478V436.777L496.197 413.912L496.422 231.432L340.393 324.241L340.395 324.239Z" fill="#CC0000"/>
      <path d="M318.202 21.3784C307.44 15.3257 290.178 15.3257 279.418 21.3784L66.8989 143.555C56.1371 149.608 47.6195 164.852 47.6195 176.958V421.311C47.6195 433.639 56.3618 448.659 66.8989 454.714L279.418 576.888C290.178 582.941 307.44 582.941 318.202 576.888L530.719 454.714C541.48 448.661 550 433.415 550 421.311V176.958C550 164.628 541.256 149.608 530.721 143.555L318.202 21.3784ZM506.734 149.159C517.494 155.211 517.494 165.299 506.734 171.352L320.666 278.285C309.907 284.337 292.645 284.337 281.885 278.285L93.1257 169.784C82.3639 163.731 82.3639 153.643 93.1257 147.59L279.191 40.6579C289.953 34.6051 307.213 34.6051 317.975 40.6579L506.73 149.159H506.734ZM64.2075 194.667C64.2075 182.339 72.9517 177.407 83.4869 183.458L273.814 292.857C284.572 298.91 293.092 314.154 293.092 326.26V543.263C293.092 555.593 284.35 560.523 273.814 554.472L83.4869 445.073C72.7271 439.02 64.2075 423.776 64.2075 411.67V194.667V194.667ZM329.411 551.109C318.649 557.162 310.131 552.23 310.131 539.9V326.26C310.131 313.929 318.873 298.91 329.409 292.857L514.131 186.821C524.892 180.768 533.41 185.7 533.41 198.03V411.67C533.41 424 524.668 439.02 514.131 445.073L329.409 551.109H329.411Z" fill="#910505"/>
    </g>
  </g>
  <defs>
    <linearGradient id="paint0_linear" x1="550" y1="152.5" x2="299" y2="582" gradientUnits="userSpaceOnUse">
      <stop stop-color="white"/>
      <stop offset="1" stop-color="#F5F5F5"/>
    </linearGradient>
  </defs>
</svg>
