<svg width="376" height="376" viewBox="0 0 376 376" fill="none" 
  xmlns="http://www.w3.org/2000/svg">
  <mask id="mask0" mask-type="alpha" maskUnits="userSpaceOnUse" x="0" y="0" width="376" height="376">
    <rect width="376" height="376" fill="#C4C4C4"/>
  </mask>
  <g mask="url(#mask0)">
    <g>
      <mask id="mask1" mask-type="alpha" maskUnits="userSpaceOnUse" x="86" y="72" width="205" height="231">
        <path d="M290.333 226.31L290.32 148.691L290.318 137.693C290.317 132.005 287.283 126.75 282.356 123.907L196.109 74.1318C191.183 71.2885 185.114 71.2894 180.189 74.1345L93.9582 123.938C89.0328 126.783 85.9995 132.039 86 137.727L86.0018 148.691L86.0149 226.309L86.0167 237.307C86.0176 242.994 89.0526 248.25 93.979 251.093L180.226 300.869C185.152 303.712 191.221 303.71 196.146 300.866L282.376 251.061C287.302 248.217 290.335 242.961 290.335 237.272L290.333 226.31Z" fill="#324A5E"/>
      </mask>
      <g mask="url(#mask1)">
        <path d="M188.098 68.9971C123.678 68.9971 71.4395 121.226 71.4395 185.656C71.4395 237.199 104.866 280.928 151.218 296.353C157.048 297.433 159.189 293.823 159.189 290.741C159.189 287.96 159.08 278.769 159.031 269.022C126.575 276.079 119.727 255.257 119.727 255.257C114.42 241.773 106.774 238.188 106.774 238.188C96.1902 230.948 107.572 231.096 107.572 231.096C119.287 231.919 125.455 243.118 125.455 243.118C135.86 260.953 152.746 255.796 159.403 252.816C160.45 245.275 163.474 240.13 166.809 237.217C140.898 234.266 113.659 224.263 113.659 179.563C113.659 166.827 118.216 156.42 125.679 148.25C124.468 145.312 120.475 133.447 126.809 117.378C126.809 117.378 136.606 114.242 158.899 129.336C168.204 126.75 178.184 125.455 188.098 125.411C198.012 125.455 208 126.75 217.323 129.336C239.59 114.242 249.372 117.378 249.372 117.378C255.722 133.447 251.727 145.312 250.516 148.25C257.995 156.42 262.522 166.826 262.522 179.563C262.522 224.369 235.231 234.236 209.254 237.123C213.438 240.744 217.166 247.844 217.166 258.727C217.166 274.336 217.031 286.899 217.031 290.741C217.031 293.846 219.131 297.483 225.045 296.338C271.372 280.895 304.756 237.182 304.756 185.656C304.756 121.226 252.525 68.9971 188.098 68.9971Z" fill="url(#paint1_linear)"/>
        <path d="M115.132 235.18C114.876 235.76 113.963 235.933 113.133 235.536C112.287 235.156 111.811 234.365 112.086 233.783C112.337 233.187 113.25 233.02 114.095 233.421C114.943 233.801 115.426 234.598 115.132 235.18V235.18ZM120.871 240.3C120.315 240.816 119.227 240.577 118.488 239.761C117.725 238.948 117.583 237.861 118.147 237.337C118.721 236.822 119.776 237.062 120.541 237.877C121.304 238.699 121.452 239.78 120.87 240.301L120.871 240.3ZM124.808 246.851C124.092 247.348 122.923 246.882 122.201 245.845C121.487 244.808 121.487 243.564 122.217 243.065C122.941 242.567 124.092 243.015 124.824 244.044C125.538 245.099 125.538 246.343 124.807 246.852L124.808 246.851ZM131.465 254.439C130.825 255.143 129.464 254.955 128.467 253.992C127.447 253.052 127.163 251.717 127.804 251.011C128.451 250.305 129.821 250.504 130.825 251.458C131.838 252.397 132.147 253.742 131.466 254.439H131.465ZM140.069 257.001C139.788 257.914 138.476 258.329 137.155 257.941C135.835 257.541 134.972 256.471 135.238 255.548C135.513 254.628 136.83 254.195 138.161 254.611C139.479 255.009 140.344 256.071 140.07 257.001H140.069ZM149.862 258.087C149.895 259.049 148.774 259.847 147.387 259.864C145.992 259.895 144.864 259.116 144.849 258.17C144.849 257.198 145.945 256.408 147.339 256.385C148.726 256.357 149.862 257.131 149.862 258.087V258.087ZM159.482 257.718C159.648 258.657 158.684 259.621 157.307 259.877C155.953 260.124 154.7 259.545 154.527 258.615C154.358 257.652 155.341 256.689 156.692 256.439C158.072 256.199 159.306 256.764 159.482 257.718" fill="url(#paint2_linear)"/>
      </g>
    </g>
  </g>
  <defs>
    <linearGradient id="paint0_linear" x1="290.471" y1="127.709" x2="188.031" y2="302.999" gradientUnits="userSpaceOnUse">
      <stop stop-color="white"/>
      <stop offset="1" stop-color="#F5F5F5"/>
    </linearGradient>
    <linearGradient id="paint1_linear" x1="304.911" y1="123.876" x2="211.789" y2="308.576" gradientUnits="userSpaceOnUse">
      <stop stop-color="#575757"/>
      <stop offset="1" stop-color="#242424"/>
    </linearGradient>
    <linearGradient id="paint2_linear" x1="159.532" y1="239.649" x2="152.232" y2="264.738" gradientUnits="userSpaceOnUse">
      <stop stop-color="#575757"/>
      <stop offset="1" stop-color="#242424"/>
    </linearGradient>
  </defs>
</svg>
